<?xml version="1.0" encoding="UTF-8"?>
<svg id="Layer_2" data-name="Layer 2" xmlns="http://www.w3.org/2000/svg" viewBox="0 0 1607.7 653.85">
  <defs>
    <style>
      .cls-1 {
        fill: #fff;
      }

      .cls-1, .cls-2 {
        stroke-width: 0px;
      }

      .cls-2 {
        fill: #4588c7;
      }
    </style>
  </defs>
  <g id="Layer_1-2" data-name="Layer 1">
    <g id="logo">
      <g>
        <path class="cls-2" d="M0,567.6c0-23.89,8.4-44.23,25.21-61.04,16.8-16.8,37.14-25.21,61.04-25.21h85.64v43.12h-85.64c-12.15,0-22.38,4.25-30.67,12.75-8.3,8.5-12.45,18.63-12.45,30.37v86.25H0v-86.25Z"/>
        <path class="cls-2" d="M351.67,567.6h-.61v21.26h-123.29c3.64,6.48,8.81,11.75,15.49,15.79,6.68,4.05,14.06,6.07,22.17,6.07h86.25v43.12h-86.25c-23.9,0-44.24-8.4-61.04-25.21-16.81-16.8-25.21-37.14-25.21-61.04s8.4-43.73,25.21-60.74c16.8-17.01,37.14-25.51,61.04-25.51s43.73,8.5,60.74,25.51,25.51,37.26,25.51,60.74ZM227.76,545.74h74.71c-3.64-6.07-8.81-11.13-15.49-15.18-6.68-4.04-13.87-6.07-21.56-6.07-8.1,0-15.49,2.03-22.17,6.07-6.68,4.05-11.84,9.11-15.49,15.18Z"/>
        <path class="cls-2" d="M412.4,588.86c-14.98,0-27.74-5.16-38.26-15.49-10.53-10.33-15.79-22.98-15.79-37.96s5.26-27.23,15.79-37.96c10.52-10.72,23.28-16.1,38.26-16.1h118.44v43.12h-118.44c-7.29,0-10.93,3.64-10.93,10.93,0,2.84,1.01,5.27,3.04,7.29,2.02,2.03,4.65,3.04,7.9,3.04h64.38c14.58,0,27.12,5.37,37.66,16.1,10.52,10.73,15.79,23.38,15.79,37.96s-5.27,27.74-15.79,38.26-23.08,15.79-37.66,15.79h-118.44v-43.73h118.44c2.43,0,4.75-1.01,6.98-3.04,2.22-2.02,3.34-4.45,3.34-7.29s-1.12-5.36-3.34-7.59c-2.23-2.22-4.55-3.34-6.98-3.34h-64.38Z"/>
        <path class="cls-2" d="M623.77,481.36c23.48,0,43.63,8.5,60.43,25.51,16.8,17.01,25.21,37.26,25.21,60.74s-8.41,44.24-25.21,61.04c-16.81,16.81-36.96,25.21-60.43,25.21s-44.24-8.4-61.04-25.21c-16.81-16.8-25.21-37.14-25.21-61.04s8.4-43.73,25.21-60.74c16.8-17.01,37.14-25.51,61.04-25.51ZM623.77,524.48c-12.15,0-22.38,4.25-30.67,12.75-8.3,8.5-12.45,18.63-12.45,30.37s4.15,22.38,12.45,30.67c8.29,8.3,18.52,12.45,30.67,12.45s21.87-4.15,30.37-12.45c8.5-8.29,12.75-18.53,12.75-30.67s-4.25-21.87-12.75-30.37c-8.5-8.5-18.63-12.75-30.37-12.75Z"/>
        <path class="cls-2" d="M888.58,567.6c0,23.9-8.41,44.24-25.21,61.04-16.81,16.81-36.96,25.21-60.43,25.21s-44.24-8.4-61.04-25.21c-16.81-16.8-25.21-37.14-25.21-61.04v-86.25h43.12v86.25c0,12.15,4.15,22.38,12.45,30.67,8.29,8.3,18.52,12.45,30.67,12.45s21.87-4.15,30.37-12.45c8.5-8.29,12.75-18.53,12.75-30.67v-86.25h42.52v86.25Z"/>
        <path class="cls-2" d="M895.86,567.6c0-23.89,8.4-44.23,25.21-61.04,16.8-16.8,37.14-25.21,61.04-25.21h85.64v43.12h-85.64c-12.15,0-22.38,4.25-30.67,12.75-8.3,8.5-12.45,18.63-12.45,30.37v86.25h-43.12v-86.25Z"/>
        <path class="cls-2" d="M1161.28,653.85c-23.9,0-44.24-8.4-61.04-25.21-16.81-16.8-25.21-37.14-25.21-61.04s8.4-43.73,25.21-60.74c16.8-17.01,37.14-25.51,61.04-25.51h85.64v43.12h-85.64c-12.15,0-22.38,4.25-30.67,12.75-8.3,8.5-12.45,18.63-12.45,30.37s4.15,22.38,12.45,30.67c8.29,8.3,18.52,12.45,30.67,12.45h85.64v43.12h-85.64Z"/>
        <path class="cls-2" d="M1426.7,567.6h-.61v21.26h-123.29c3.64,6.48,8.81,11.75,15.49,15.79,6.68,4.05,14.06,6.07,22.17,6.07h86.25v43.12h-86.25c-23.9,0-44.24-8.4-61.04-25.21-16.81-16.8-25.21-37.14-25.21-61.04s8.4-43.73,25.21-60.74c16.8-17.01,37.14-25.51,61.04-25.51s43.73,8.5,60.74,25.51,25.51,37.26,25.51,60.74ZM1302.8,545.74h74.71c-3.64-6.07-8.81-11.13-15.49-15.18-6.68-4.04-13.87-6.07-21.56-6.07-8.1,0-15.49,2.03-22.17,6.07-6.68,4.05-11.84,9.11-15.49,15.18Z"/>
        <path class="cls-2" d="M1487.44,588.86c-14.98,0-27.74-5.16-38.26-15.49-10.53-10.33-15.79-22.98-15.79-37.96s5.26-27.23,15.79-37.96c10.52-10.72,23.28-16.1,38.26-16.1h118.44v43.12h-118.44c-7.29,0-10.93,3.64-10.93,10.93,0,2.84,1.01,5.27,3.04,7.29,2.02,2.03,4.65,3.04,7.9,3.04h64.38c14.58,0,27.12,5.37,37.66,16.1,10.52,10.73,15.79,23.38,15.79,37.96s-5.27,27.74-15.79,38.26-23.08,15.79-37.66,15.79h-118.44v-43.73h118.44c2.43,0,4.75-1.01,6.98-3.04,2.22-2.02,3.34-4.45,3.34-7.29s-1.12-5.36-3.34-7.59c-2.23-2.22-4.55-3.34-6.98-3.34h-64.38Z"/>
      </g>
      <g>
        <path class="cls-1" d="M204.35,0v68.46H68.46v340.25H0V0h204.35Z"/>
        <path class="cls-1" d="M608.96,60.28c40.36,39.85,60.79,87.87,60.79,144.07s-20.44,104.73-60.79,144.07c-39.85,39.85-87.36,60.28-144.07,60.28s-104.22-20.44-144.07-60.28c-39.85-39.85-60.28-87.36-60.28-144.07s20.44-104.22,60.28-144.07C360.16,20.44,408.19,0,464.89,0s104.22,20.44,144.07,60.28ZM368.34,108.31c-26.57,26.57-39.34,58.75-39.34,96.05s12.77,69.99,39.34,96.56c26.57,26.57,59.26,39.34,96.56,39.34s69.48-12.77,96.05-39.34,39.85-59.26,39.85-96.56-13.28-69.48-39.85-96.05c-26.57-26.57-58.75-39.85-96.05-39.85s-69.48,12.77-96.56,39.85Z"/>
        <path class="cls-1" d="M813.82,348.42c-18.39-18.9-33.21-40.36-43.94-65.39-10.73-25.03-16.35-51.09-16.35-78.68s5.62-54.66,16.35-79.7c10.73-24.52,25.54-45.98,43.94-64.37s40.36-33.21,65.39-43.94c24.52-10.73,51.09-16.35,79.19-16.35s54.66,5.11,79.19,15.84,46.49,25.54,65.39,44.45l-48.53,47.51c-27.08-26.57-59.26-39.34-96.05-39.34-18.9,0-36.78,3.58-53.13,10.22-16.86,7.15-31.16,16.86-43.42,29.63-12.26,12.26-21.97,26.57-29.12,42.91-7.15,16.86-10.73,34.23-10.73,53.13s3.58,36.27,10.73,53.13c7.15,16.35,16.86,30.65,29.63,42.91,12.26,12.77,26.57,22.48,42.91,29.63,16.86,6.64,34.23,10.22,53.13,10.22l79.19,52.62c-24.52,10.73-51.09,15.84-79.19,15.84s-54.66-5.62-79.19-16.35c-25.03-10.73-46.49-25.54-65.39-43.94Z"/>
        <path class="cls-1" d="M1461.6,0v408.7h-67.95v-170.12h-204.35v170.12h-67.95v-170.12l67.95-68.46h204.35V0h67.95Z"/>
        <path class="cls-1" d="M1607.7,340.25l-67.95,68.46V0l67.95,67.44v272.81Z"/>
      </g>
    </g>
  </g>
</svg>